<svg version="1.2" xmlns="http://www.w3.org/2000/svg" viewBox="0 0 1051 875" width="1051" height="875"><style>.a{fill:#f0d8d8}</style><path class="a" d="m553.5 0.2c4.9-0.1 15.5 0.3 23.5 0.8 8 0.6 20.1 1.9 27 3 6.9 1.2 17.7 3.4 24 5 6.3 1.6 16.9 4.8 23.5 7 6.6 2.3 16.9 6.6 23 9.5 6 3 14.6 8.3 19 11.8 4.4 3.5 10.2 9.2 12.9 12.7 2.6 3.6 6 8.7 7.4 11.5 1.3 2.7 3.5 7.9 4.7 11.5 1.2 3.6 4.1 15 6.3 25.5 2.3 10.4 5.3 22.4 6.7 26.5 1.4 4.1 4.2 10.6 6.1 14.5 2 3.8 5.5 9.9 7.9 13.5 2.3 3.6 7.6 10 11.6 14.4 4.1 4.3 11.2 10.7 15.9 14.3 4.7 3.5 13 8.6 18.5 11.3 5.5 2.7 13.6 6.1 18 7.5 4.4 1.4 12.5 3.4 18 4.4 5.5 1.1 18.5 3.2 29 4.6 10.4 1.5 23.9 4 30 5.5 6 1.6 14.6 4.3 19 6 4.4 1.7 12.7 5.6 18.5 8.6 5.8 3 14.4 8.3 19.2 11.7 4.8 3.4 12.6 9.6 17.3 13.7 4.8 4.1 12.5 11.8 17.2 17 4.7 5.2 11.6 13.5 15.3 18.5 3.8 4.9 9.8 13.7 13.5 19.5 3.6 5.8 9.9 17 13.9 25 4 8 9.6 20.1 12.4 27 2.8 6.9 6.7 17.9 8.7 24.5 2 6.6 4.8 17.6 6.2 24.5 2.4 11.3 2.7 14.7 2.7 34.5 0.1 18-0.2 23.5-1.8 30.5-1 4.7-2.9 11.4-4.1 15-1.2 3.6-4.3 10.5-6.7 15.5-2.5 4.9-7.1 12.6-10.3 17-3.1 4.4-9.3 11.8-13.8 16.3-4.5 4.6-12.3 11.6-17.2 15.4-5 3.9-13.3 9.5-18.5 12.6-5.2 3.1-13.8 7.6-19 10-5.2 2.5-13.6 6-18.5 7.9-5 1.9-19.6 6.7-32.5 10.8-12.9 4-28 9-33.5 11-5.5 2-14.7 6.2-20.5 9.1-5.8 3-14.4 8.3-19.2 11.7-4.8 3.4-12.9 9.8-18 14.3-5.1 4.4-13.4 12.5-18.3 18-5 5.4-13.4 15.3-18.7 21.9-5.2 6.6-18.7 24.8-29.8 40.5-11.2 15.7-23 32.1-26.4 36.5-3.3 4.4-9.6 12.5-14 18-4.5 5.5-13.7 15.8-20.6 22.9-6.9 7-16.1 15.7-20.5 19.3-4.4 3.5-11.8 9-16.5 12.2-4.7 3.2-12.1 7.9-16.5 10.3-4.4 2.5-12.7 6.7-18.5 9.3-5.8 2.6-17.1 6.9-25.3 9.6-8.1 2.7-21.3 6.2-29.5 7.9-8.1 1.6-20.8 3.6-28.2 4.5-8.1 0.9-22.7 1.5-36.3 1.5-13.3 0-28.8-0.6-37.5-1.5-8.1-0.9-21.2-2.7-29.2-4.1-8-1.3-19.9-3.8-26.5-5.4-6.6-1.6-17.4-4.5-24-6.5-6.6-2-16.3-5.2-21.5-7.2-5.2-2-12.7-5.2-16.5-7.1-3.9-1.9-9.9-5.4-13.5-7.7-3.6-2.4-9.7-7.6-13.5-11.6-4.2-4.4-8.4-10-10.3-13.9-1.8-3.6-3.8-9.1-5.7-18h-11c-6.1 0-14.8-0.5-19.5-1-4.7-0.6-14.1-1.9-21-3.1-6.9-1.1-17.7-3.3-24-4.9-6.3-1.6-15.6-4-20.5-5.5-5-1.4-11.9-3.8-15.5-5.2-3.6-1.4-9.7-4.2-13.5-6.1-3.9-1.9-9.5-5.1-12.5-7.2-3-2-7.9-6.4-10.8-9.6-3-3.2-6.5-8.3-7.8-11.2-1.3-2.8-2.9-7.6-3.5-10.5-0.7-3-0.9-8.6-0.6-13.2 0.4-4.4 1.8-12.3 3.2-17.5 1.4-5.2 3.9-14.7 5.6-21 2.5-9.3 3.1-14.2 3.6-26 0.4-10.7 0.1-16.8-1-23.5-0.9-5-2.8-12.8-4.3-17.5-1.4-4.7-4.3-12.1-6.4-16.5-2.2-4.4-6.2-11.6-9.1-16-3-4.5-10.3-13-16.8-19.6-7.2-7.1-18.4-16.7-29.6-25.1-9.9-7.5-21.6-16.8-26-20.6-4.4-3.8-10.9-10.5-14.6-14.8-3.6-4.4-8.1-10.2-10.1-12.9-2-2.8-5.9-9.1-8.7-14-2.8-5-6.9-13.3-9-18.5-2.1-5.2-4.8-12.2-6-15.5-1.1-3.3-2.9-9.6-4-14-1.1-4.4-2.8-12.7-3.8-18.5-1.3-7.8-1.8-16.1-1.8-32.5 0-13.4 0.5-25.7 1.4-31.5 0.7-5.2 2.7-14.9 4.3-21.5 1.6-6.6 4.5-16.3 6.5-21.5 1.9-5.2 5.8-14.2 8.7-20 2.8-5.8 8-14.8 11.6-20.2 3.6-5.3 9.6-13.3 13.5-17.9 3.8-4.5 10.7-11.5 15.2-15.5 4.6-4.1 12.5-10.5 17.5-14.3 5.1-3.7 13.2-9.4 18-12.5 4.9-3.1 18.6-11.2 30.5-17.9 12-6.8 37.1-20.8 55.8-31.2 18.7-10.3 41-22.7 49.5-27.5 11.8-6.6 17-10.2 22-15.1 5.5-5.4 7.5-6.7 13-8.3 3.6-1.1 10.3-3 15-4.3 4.7-1.3 15-3.5 23-4.9 8-1.3 20.4-2.8 40.5-3.9l43.4-24c23.9-13.2 44.5-25.2 46-26.6 1.4-1.4 4.8-4.9 7.6-7.8 4.5-4.7 6-5.5 15.5-8.6 5.8-1.9 15-4.6 20.5-5.9 5.5-1.4 13.6-3.1 18-4 4.4-0.8 11.6-2 16-2.7 4.4-0.6 13.2-1.5 19.5-1.9 6.3-0.4 15.5-0.8 20.5-0.8z"/></svg>